<?xml version="1.0" encoding="iso-8859-1"?>
<!-- Uploaded to: SVG Repo, www.svgrepo.com, Generator: SVG Repo Mixer Tools -->
<svg fill="#000000" height="800px" width="800px" version="1.1" id="Layer_1" xmlns="http://www.w3.org/2000/svg" xmlns:xlink="http://www.w3.org/1999/xlink" 
	 viewBox="0 0 512 512" xml:space="preserve">
<g>
	<g>
		<path d="M424.142,454.531h-337.3c-5.77,0-10.449,4.679-10.449,10.449c0,5.77,4.679,10.449,10.449,10.449h337.3
			c5.771,0,10.449-4.679,10.449-10.449C434.591,459.21,429.913,454.531,424.142,454.531z"/>
	</g>
</g>
<g>
	<g>
		<path d="M51.315,454.531H10.449C4.679,454.531,0,459.21,0,464.98c0,5.77,4.678,10.449,10.449,10.449h40.866
			c5.77,0,10.449-4.679,10.449-10.449C61.764,459.21,57.086,454.531,51.315,454.531z"/>
	</g>
</g>
<g>
	<g>
		<path d="M500.535,454.531h-40.866c-5.77,0-10.449,4.679-10.449,10.449c0,5.77,4.679,10.449,10.449,10.449h40.866
			c5.77,0,10.449-4.679,10.449-10.449C510.984,459.21,506.306,454.531,500.535,454.531z"/>
	</g>
</g>
<g>
	<g>
		<path d="M379.806,491.102H187.968c-5.77,0-10.449,4.679-10.449,10.449c0,5.77,4.679,10.449,10.449,10.449h191.839
			c5.77,0,10.449-4.679,10.449-10.449C390.256,495.781,385.577,491.102,379.806,491.102z"/>
	</g>
</g>
<g>
	<g>
		<path d="M152.442,491.102h-20.247c-5.77,0-10.449,4.679-10.449,10.449c0,5.77,4.679,10.449,10.449,10.449h20.247
			c5.771,0,10.449-4.679,10.449-10.449C162.891,495.781,158.212,491.102,152.442,491.102z"/>
	</g>
</g>
<g>
	<g>
		<path d="M324.965,88.816c-5.771,0-10.449,4.679-10.449,10.449v108.169c0,5.77,4.678,10.449,10.449,10.449
			c5.77,0,10.449-4.679,10.449-10.449V99.265C335.414,93.495,330.735,88.816,324.965,88.816z"/>
	</g>
</g>
<g>
	<g>
		<path d="M324.965,232.512c-5.771,0-10.449,4.678-10.449,10.449v23.714c0,5.77,4.678,10.449,10.449,10.449
			c5.77,0,10.449-4.679,10.449-10.449v-23.714C335.414,237.191,330.735,232.512,324.965,232.512z"/>
	</g>
</g>
<g>
	<g>
		<path d="M256,99.861c-5.771,0-10.449,4.679-10.449,10.449v75.615c0,5.771,4.678,10.449,10.449,10.449
			c5.771,0,10.449-4.678,10.449-10.449V110.31C266.449,104.54,261.771,99.861,256,99.861z"/>
	</g>
</g>
<g>
	<g>
		<path d="M256,48.762c-5.771,0-10.449,4.679-10.449,10.449v15.572c0,5.771,4.678,10.449,10.449,10.449
			c5.771,0,10.449-4.679,10.449-10.449V59.211C266.449,53.441,261.771,48.762,256,48.762z"/>
	</g>
</g>
<g>
	<g>
		<path d="M256,211.004c-5.771,0-10.449,4.679-10.449,10.449v23.714c0,5.77,4.678,10.449,10.449,10.449
			c5.771,0,10.449-4.679,10.449-10.449v-23.714C266.449,215.683,261.771,211.004,256,211.004z"/>
	</g>
</g>
<g>
	<g>
		<path d="M256,270.244c-5.771,0-10.449,4.679-10.449,10.449v23.714c0,5.771,4.678,10.449,10.449,10.449
			c5.771,0,10.449-4.678,10.449-10.449v-23.714C266.449,274.923,261.771,270.244,256,270.244z"/>
	</g>
</g>
<g>
	<g>
		<path d="M189.127,90.606c-5.771,0-10.449,4.679-10.449,10.449v94.523c0,5.77,4.678,10.449,10.449,10.449
			c5.771,0,10.449-4.678,10.449-10.449v-94.523C199.576,95.285,194.898,90.606,189.127,90.606z"/>
	</g>
</g>
<g>
	<g>
		<path d="M189.127,220.655c-5.771,0-10.449,4.679-10.449,10.449v23.714c0,5.771,4.678,10.449,10.449,10.449
			c5.771,0,10.449-4.678,10.449-10.449v-23.714C199.576,225.334,194.898,220.655,189.127,220.655z"/>
	</g>
</g>
<g>
	<g>
		<path d="M189.127,281.078c-5.771,0-10.449,4.679-10.449,10.449v23.714c0,5.771,4.678,10.449,10.449,10.449
			c5.771,0,10.449-4.679,10.449-10.449v-23.714C199.576,285.757,194.898,281.078,189.127,281.078z"/>
	</g>
</g>
<g>
	<g>
		<path d="M300.821,321.437c-19.717,0-38.38,8.585-52.552,24.173c-3.882,4.269-3.567,10.877,0.703,14.76
			c2.002,1.82,4.517,2.718,7.026,2.718c2.841,0,5.673-1.153,7.734-3.42c10.162-11.176,23.333-17.332,37.089-17.332
			c5.77,0,10.449-4.679,10.449-10.449C311.27,326.117,306.591,321.437,300.821,321.437z"/>
	</g>
</g>
<g>
	<g>
		<path d="M246.007,377.663c-11.07-22.575-32.078-36.599-54.828-36.599c-5.77,0-10.449,4.678-10.449,10.449
			c0,5.77,4.679,10.449,10.449,10.449c14.713,0,28.533,9.541,36.065,24.9c1.815,3.702,5.528,5.851,9.389,5.851
			c1.544,0,3.113-0.344,4.592-1.069C246.407,389.103,248.548,382.843,246.007,377.663z"/>
	</g>
</g>
<g>
	<g>
		<path d="M486.669,208.68h-13.282v-95.423c0-13.968-11.363-25.331-25.331-25.331h-16.164V25.331
			C431.892,11.363,420.529,0,406.561,0H105.506C91.538,0,80.174,11.363,80.174,25.331v62.593H64.011
			c-13.968,0-25.331,11.363-25.331,25.331v95.423H25.398c-13.968,0-25.331,11.363-25.331,25.331v196.488
			c0,5.77,4.678,10.449,10.449,10.449c5.771,0,10.449-4.679,10.449-10.449V234.011c0-2.445,1.988-4.433,4.433-4.433h23.731
			c5.77,0,10.449-4.679,10.449-10.449V113.256c0-2.445,1.988-4.433,4.433-4.433h26.613c5.77,0,10.449-4.679,10.449-10.449V25.331
			c0-2.445,1.988-4.434,4.433-4.434h25.107v340.611c-6.484,6.369-11.683,13.894-15.324,22.172
			c-22.305,4.072-38.895,23.425-38.895,46.818c0,5.77,4.679,10.449,10.449,10.449h338.336c5.77,0,10.449-4.679,10.449-10.449
			c0-26.606-20.149-48.596-45.989-51.512c-2.108-5.938-4.866-11.629-8.251-17.011V20.898h25.173c2.445,0,4.433,1.988,4.433,4.434
			v73.042c0,5.77,4.678,10.449,10.449,10.449h26.612c2.445,0,4.433,1.988,4.433,4.433v105.872c0,5.77,4.679,10.449,10.449,10.449
			h23.731c2.445,0,4.434,1.988,4.434,4.434v196.488c0,5.77,4.679,10.449,10.449,10.449c5.77,0,10.449-4.679,10.449-10.449V234.011
			C512,220.043,500.637,208.68,486.669,208.68z M382.306,399.599c0.492-0.023,0.983-0.044,1.481-0.044
			c13.397,0,24.833,8.558,29.128,20.494H99.386c3.92-9.308,12.951-15.886,23.715-16.245c4.382-0.146,8.208-3.013,9.579-7.18
			c2.877-8.749,8.122-16.56,15.172-22.586c2.322-1.985,3.658-4.887,3.658-7.942V20.898h208.98v344.191
			c0,2.102,0.633,4.156,1.818,5.891c4.351,6.375,7.508,13.354,9.379,20.745C372.908,396.542,377.396,399.819,382.306,399.599z"/>
	</g>
</g>
</svg>